solid CATIA STL
  facet normal -1.000000e+000  0.000000e+000  0.000000e+000
    outer loop
      vertex  1.450000e+001 -1.690000e+001  1.500000e+001
      vertex  1.450000e+001 -1.700000e+001  1.500000e+001
      vertex  1.450000e+001 -1.690000e+001  6.150000e+001
    endloop
  endfacet
  facet normal -1.000000e+000  -0.000000e+000  0.000000e+000
    outer loop
      vertex  1.450000e+001 -1.690000e+001  6.150000e+001
      vertex  1.450000e+001 -1.700000e+001  1.500000e+001
      vertex  1.450000e+001 -1.700000e+001  6.160000e+001
    endloop
  endfacet
  facet normal -9.999999e-001  0.000000e+000  0.000000e+000
    outer loop
      vertex  1.450000e+001 -1.690000e+001  6.150000e+001
      vertex  1.450000e+001 -1.700000e+001  6.160000e+001
      vertex  1.450000e+001  1.690000e+001  6.150000e+001
    endloop
  endfacet
  facet normal -9.999999e-001  0.000000e+000  0.000000e+000
    outer loop
      vertex  1.450000e+001  1.690000e+001  6.150000e+001
      vertex  1.450000e+001 -1.700000e+001  6.160000e+001
      vertex  1.450000e+001  1.700000e+001  6.160000e+001
    endloop
  endfacet
  facet normal -1.000000e+000  0.000000e+000  0.000000e+000
    outer loop
      vertex  1.450000e+001  1.690000e+001  6.150000e+001
      vertex  1.450000e+001  1.700000e+001  6.160000e+001
      vertex  1.450000e+001  1.690000e+001  1.500000e+001
    endloop
  endfacet
  facet normal -1.000000e+000  0.000000e+000  0.000000e+000
    outer loop
      vertex  1.450000e+001  1.690000e+001  1.500000e+001
      vertex  1.450000e+001  1.700000e+001  6.160000e+001
      vertex  1.450000e+001  1.700000e+001  1.500000e+001
    endloop
  endfacet
  facet normal  1.000000e+000  0.000000e+000  0.000000e+000
    outer loop
      vertex -1.450000e+001  1.690000e+001  1.500000e+001
      vertex -1.450000e+001  1.700000e+001  1.500000e+001
      vertex -1.450000e+001  1.690000e+001  6.150000e+001
    endloop
  endfacet
  facet normal  1.000000e+000  -0.000000e+000  0.000000e+000
    outer loop
      vertex -1.450000e+001  1.690000e+001  6.150000e+001
      vertex -1.450000e+001  1.700000e+001  1.500000e+001
      vertex -1.450000e+001  1.700000e+001  6.160000e+001
    endloop
  endfacet
  facet normal  9.999999e-001  0.000000e+000  0.000000e+000
    outer loop
      vertex -1.450000e+001  1.690000e+001  6.150000e+001
      vertex -1.450000e+001  1.700000e+001  6.160000e+001
      vertex -1.450000e+001 -1.690000e+001  6.150000e+001
    endloop
  endfacet
  facet normal  9.999999e-001  0.000000e+000  -0.000000e+000
    outer loop
      vertex -1.450000e+001 -1.690000e+001  6.150000e+001
      vertex -1.450000e+001  1.700000e+001  6.160000e+001
      vertex -1.450000e+001 -1.700000e+001  6.160000e+001
    endloop
  endfacet
  facet normal  1.000000e+000  0.000000e+000  0.000000e+000
    outer loop
      vertex -1.450000e+001 -1.690000e+001  6.150000e+001
      vertex -1.450000e+001 -1.700000e+001  6.160000e+001
      vertex -1.450000e+001 -1.690000e+001  1.500000e+001
    endloop
  endfacet
  facet normal  1.000000e+000  0.000000e+000  0.000000e+000
    outer loop
      vertex -1.450000e+001 -1.690000e+001  1.500000e+001
      vertex -1.450000e+001 -1.700000e+001  6.160000e+001
      vertex -1.450000e+001 -1.700000e+001  1.500000e+001
    endloop
  endfacet
  facet normal  0.000000e+000  0.000000e+000  1.000000e+000
    outer loop
      vertex -1.450000e+001 -1.700000e+001  1.500000e+001
      vertex  1.450000e+001 -1.700000e+001  1.500000e+001
      vertex -1.450000e+001 -1.690000e+001  1.500000e+001
    endloop
  endfacet
  facet normal  -0.000000e+000  0.000000e+000  1.000000e+000
    outer loop
      vertex -1.450000e+001 -1.690000e+001  1.500000e+001
      vertex  1.450000e+001 -1.700000e+001  1.500000e+001
      vertex  1.450000e+001 -1.690000e+001  1.500000e+001
    endloop
  endfacet
  facet normal  0.000000e+000  0.000000e+000  1.000000e+000
    outer loop
      vertex -1.450000e+001  1.690000e+001  1.500000e+001
      vertex  1.450000e+001  1.690000e+001  1.500000e+001
      vertex -1.450000e+001  1.700000e+001  1.500000e+001
    endloop
  endfacet
  facet normal  -0.000000e+000  0.000000e+000  1.000000e+000
    outer loop
      vertex -1.450000e+001  1.700000e+001  1.500000e+001
      vertex  1.450000e+001  1.690000e+001  1.500000e+001
      vertex  1.450000e+001  1.700000e+001  1.500000e+001
    endloop
  endfacet
  facet normal  0.000000e+000  0.000000e+000  9.999999e-001
    outer loop
      vertex -1.450000e+001 -1.690000e+001  6.150000e+001
      vertex  1.450000e+001 -1.690000e+001  6.150000e+001
      vertex -1.450000e+001  1.690000e+001  6.150000e+001
    endloop
  endfacet
  facet normal  -0.000000e+000  0.000000e+000  9.999999e-001
    outer loop
      vertex -1.450000e+001  1.690000e+001  6.150000e+001
      vertex  1.450000e+001 -1.690000e+001  6.150000e+001
      vertex  1.450000e+001  1.690000e+001  6.150000e+001
    endloop
  endfacet
  facet normal  0.000000e+000  1.000000e+000  0.000000e+000
    outer loop
      vertex -1.450000e+001  1.690000e+001  1.500000e+001
      vertex -1.450000e+001  1.690000e+001  6.150000e+001
      vertex  1.450000e+001  1.690000e+001  1.500000e+001
    endloop
  endfacet
  facet normal  0.000000e+000  1.000000e+000  -0.000000e+000
    outer loop
      vertex  1.450000e+001  1.690000e+001  1.500000e+001
      vertex -1.450000e+001  1.690000e+001  6.150000e+001
      vertex  1.450000e+001  1.690000e+001  6.150000e+001
    endloop
  endfacet
  facet normal  0.000000e+000 -1.000000e+000  -0.000000e+000
    outer loop
      vertex  1.450000e+001 -1.690000e+001  1.500000e+001
      vertex  1.450000e+001 -1.690000e+001  6.150000e+001
      vertex -1.450000e+001 -1.690000e+001  1.500000e+001
    endloop
  endfacet
  facet normal  0.000000e+000 -1.000000e+000  0.000000e+000
    outer loop
      vertex -1.450000e+001 -1.690000e+001  1.500000e+001
      vertex  1.450000e+001 -1.690000e+001  6.150000e+001
      vertex -1.450000e+001 -1.690000e+001  6.150000e+001
    endloop
  endfacet
  facet normal  0.000000e+000  0.000000e+000 -1.000000e+000
    outer loop
      vertex -1.630000e+001 -1.700000e+001  0.000000e+000
      vertex -1.630000e+001  1.700000e+001  0.000000e+000
      vertex  1.630000e+001 -1.700000e+001  0.000000e+000
    endloop
  endfacet
  facet normal  0.000000e+000  0.000000e+000 -1.000000e+000
    outer loop
      vertex  1.630000e+001 -1.700000e+001  0.000000e+000
      vertex -1.630000e+001  1.700000e+001  0.000000e+000
      vertex  1.630000e+001  1.700000e+001  0.000000e+000
    endloop
  endfacet
  facet normal  0.000000e+000  0.000000e+000  1.000000e+000
    outer loop
      vertex -1.630000e+001 -1.700000e+001  6.160000e+001
      vertex -1.450000e+001 -1.700000e+001  6.160000e+001
      vertex -1.630000e+001  1.700000e+001  6.160000e+001
    endloop
  endfacet
  facet normal  -0.000000e+000  0.000000e+000  1.000000e+000
    outer loop
      vertex -1.630000e+001  1.700000e+001  6.160000e+001
      vertex -1.450000e+001 -1.700000e+001  6.160000e+001
      vertex -1.450000e+001  1.700000e+001  6.160000e+001
    endloop
  endfacet
  facet normal  0.000000e+000  0.000000e+000  1.000000e+000
    outer loop
      vertex  1.450000e+001 -1.700000e+001  6.160000e+001
      vertex  1.630000e+001 -1.700000e+001  6.160000e+001
      vertex  1.450000e+001  1.700000e+001  6.160000e+001
    endloop
  endfacet
  facet normal  -0.000000e+000  0.000000e+000  1.000000e+000
    outer loop
      vertex  1.450000e+001  1.700000e+001  6.160000e+001
      vertex  1.630000e+001 -1.700000e+001  6.160000e+001
      vertex  1.630000e+001  1.700000e+001  6.160000e+001
    endloop
  endfacet
  facet normal  1.000000e+000  0.000000e+000  0.000000e+000
    outer loop
      vertex  1.630000e+001 -1.700000e+001  0.000000e+000
      vertex  1.630000e+001  1.700000e+001  0.000000e+000
      vertex  1.630000e+001 -1.700000e+001  6.160000e+001
    endloop
  endfacet
  facet normal  1.000000e+000  -0.000000e+000  0.000000e+000
    outer loop
      vertex  1.630000e+001 -1.700000e+001  6.160000e+001
      vertex  1.630000e+001  1.700000e+001  0.000000e+000
      vertex  1.630000e+001  1.700000e+001  6.160000e+001
    endloop
  endfacet
  facet normal -1.000000e+000  0.000000e+000  0.000000e+000
    outer loop
      vertex -1.630000e+001  1.700000e+001  0.000000e+000
      vertex -1.630000e+001 -1.700000e+001  0.000000e+000
      vertex -1.630000e+001  1.700000e+001  6.160000e+001
    endloop
  endfacet
  facet normal -1.000000e+000  -0.000000e+000  0.000000e+000
    outer loop
      vertex -1.630000e+001  1.700000e+001  6.160000e+001
      vertex -1.630000e+001 -1.700000e+001  0.000000e+000
      vertex -1.630000e+001 -1.700000e+001  6.160000e+001
    endloop
  endfacet
  facet normal  -0.000000e+000  1.000000e+000  0.000000e+000
    outer loop
      vertex  1.630000e+001  1.700000e+001  0.000000e+000
      vertex  1.450000e+001  1.700000e+001  6.160000e+001
      vertex  1.630000e+001  1.700000e+001  6.160000e+001
    endloop
  endfacet
  facet normal  0.000000e+000  1.000000e+000  0.000000e+000
    outer loop
      vertex  1.450000e+001  1.700000e+001  6.160000e+001
      vertex  1.630000e+001  1.700000e+001  0.000000e+000
      vertex  1.450000e+001  1.700000e+001  1.500000e+001
    endloop
  endfacet
  facet normal  0.000000e+000  1.000000e+000  0.000000e+000
    outer loop
      vertex  1.450000e+001  1.700000e+001  1.500000e+001
      vertex  1.630000e+001  1.700000e+001  0.000000e+000
      vertex -1.630000e+001  1.700000e+001  0.000000e+000
    endloop
  endfacet
  facet normal  0.000000e+000  1.000000e+000  0.000000e+000
    outer loop
      vertex  1.450000e+001  1.700000e+001  1.500000e+001
      vertex -1.630000e+001  1.700000e+001  0.000000e+000
      vertex -1.450000e+001  1.700000e+001  1.500000e+001
    endloop
  endfacet
  facet normal  0.000000e+000  1.000000e+000  0.000000e+000
    outer loop
      vertex -1.450000e+001  1.700000e+001  1.500000e+001
      vertex -1.630000e+001  1.700000e+001  0.000000e+000
      vertex -1.630000e+001  1.700000e+001  6.160000e+001
    endloop
  endfacet
  facet normal  -0.000000e+000  1.000000e+000  0.000000e+000
    outer loop
      vertex -1.450000e+001  1.700000e+001  1.500000e+001
      vertex -1.630000e+001  1.700000e+001  6.160000e+001
      vertex -1.450000e+001  1.700000e+001  6.160000e+001
    endloop
  endfacet
  facet normal  -0.000000e+000 -1.000000e+000  0.000000e+000
    outer loop
      vertex -1.630000e+001 -1.700000e+001  0.000000e+000
      vertex -1.450000e+001 -1.700000e+001  6.160000e+001
      vertex -1.630000e+001 -1.700000e+001  6.160000e+001
    endloop
  endfacet
  facet normal  0.000000e+000 -1.000000e+000  0.000000e+000
    outer loop
      vertex -1.450000e+001 -1.700000e+001  6.160000e+001
      vertex -1.630000e+001 -1.700000e+001  0.000000e+000
      vertex -1.450000e+001 -1.700000e+001  1.500000e+001
    endloop
  endfacet
  facet normal  0.000000e+000 -1.000000e+000  -0.000000e+000
    outer loop
      vertex -1.450000e+001 -1.700000e+001  1.500000e+001
      vertex -1.630000e+001 -1.700000e+001  0.000000e+000
      vertex  1.630000e+001 -1.700000e+001  0.000000e+000
    endloop
  endfacet
  facet normal  0.000000e+000 -1.000000e+000  0.000000e+000
    outer loop
      vertex -1.450000e+001 -1.700000e+001  1.500000e+001
      vertex  1.630000e+001 -1.700000e+001  0.000000e+000
      vertex  1.450000e+001 -1.700000e+001  1.500000e+001
    endloop
  endfacet
  facet normal  0.000000e+000 -1.000000e+000  0.000000e+000
    outer loop
      vertex  1.450000e+001 -1.700000e+001  1.500000e+001
      vertex  1.630000e+001 -1.700000e+001  0.000000e+000
      vertex  1.630000e+001 -1.700000e+001  6.160000e+001
    endloop
  endfacet
  facet normal  -0.000000e+000 -1.000000e+000  0.000000e+000
    outer loop
      vertex  1.450000e+001 -1.700000e+001  1.500000e+001
      vertex  1.630000e+001 -1.700000e+001  6.160000e+001
      vertex  1.450000e+001 -1.700000e+001  6.160000e+001
    endloop
  endfacet
endsolid CATIA STL
