solid CATIA STL
  facet normal  0.000000e+000  0.000000e+000  1.000000e+000
    outer loop
      vertex  1.450000e+001 -1.700000e+001  1.526000e+002
      vertex  1.630000e+001 -1.700000e+001  1.526000e+002
      vertex  1.450000e+001  1.700000e+001  1.526000e+002
    endloop
  endfacet
  facet normal  -0.000000e+000  0.000000e+000  1.000000e+000
    outer loop
      vertex  1.450000e+001  1.700000e+001  1.526000e+002
      vertex  1.630000e+001 -1.700000e+001  1.526000e+002
      vertex  1.630000e+001  1.700000e+001  1.526000e+002
    endloop
  endfacet
  facet normal  0.000000e+000  0.000000e+000  1.000000e+000
    outer loop
      vertex -1.630000e+001 -1.700000e+001  1.526000e+002
      vertex -1.450000e+001 -1.700000e+001  1.526000e+002
      vertex -1.630000e+001  1.700000e+001  1.526000e+002
    endloop
  endfacet
  facet normal  -0.000000e+000  0.000000e+000  1.000000e+000
    outer loop
      vertex -1.630000e+001  1.700000e+001  1.526000e+002
      vertex -1.450000e+001 -1.700000e+001  1.526000e+002
      vertex -1.450000e+001  1.700000e+001  1.526000e+002
    endloop
  endfacet
  facet normal  0.000000e+000 -1.000000e+000  -0.000000e+000
    outer loop
      vertex  1.630000e+001 -2.400000e+001  0.000000e+000
      vertex  1.630000e+001 -2.400000e+001  1.060000e+002
      vertex -1.630000e+001 -2.400000e+001  0.000000e+000
    endloop
  endfacet
  facet normal  0.000000e+000 -1.000000e+000  0.000000e+000
    outer loop
      vertex -1.630000e+001 -2.400000e+001  0.000000e+000
      vertex  1.630000e+001 -2.400000e+001  1.060000e+002
      vertex -1.630000e+001 -2.400000e+001  1.060000e+002
    endloop
  endfacet
  facet normal  1.000000e+000  0.000000e+000  -0.000000e+000
    outer loop
      vertex  1.630000e+001 -1.900000e+001  4.100000e+001
      vertex  1.630000e+001  1.900000e+001  4.100000e+001
      vertex  1.630000e+001  2.400000e+001  1.060000e+002
    endloop
  endfacet
  facet normal  1.000000e+000  0.000000e+000  0.000000e+000
    outer loop
      vertex  1.630000e+001 -1.900000e+001  4.100000e+001
      vertex  1.630000e+001  2.400000e+001  1.060000e+002
      vertex  1.630000e+001  1.700000e+001  1.060000e+002
    endloop
  endfacet
  facet normal  1.000000e+000  0.000000e+000  0.000000e+000
    outer loop
      vertex  1.630000e+001 -1.900000e+001  4.100000e+001
      vertex  1.630000e+001  1.700000e+001  1.060000e+002
      vertex  1.630000e+001 -1.700000e+001  1.060000e+002
    endloop
  endfacet
  facet normal  1.000000e+000  0.000000e+000  0.000000e+000
    outer loop
      vertex  1.630000e+001 -1.900000e+001  4.100000e+001
      vertex  1.630000e+001 -1.700000e+001  1.060000e+002
      vertex  1.630000e+001 -2.400000e+001  1.060000e+002
    endloop
  endfacet
  facet normal  1.000000e+000  0.000000e+000  0.000000e+000
    outer loop
      vertex  1.630000e+001 -1.900000e+001  4.100000e+001
      vertex  1.630000e+001 -2.400000e+001  1.060000e+002
      vertex  1.630000e+001 -2.400000e+001  0.000000e+000
    endloop
  endfacet
  facet normal  1.000000e+000  0.000000e+000  0.000000e+000
    outer loop
      vertex  1.630000e+001 -1.900000e+001  4.100000e+001
      vertex  1.630000e+001 -2.400000e+001  0.000000e+000
      vertex  1.630000e+001 -1.900000e+001  0.000000e+000
    endloop
  endfacet
  facet normal  1.000000e+000  0.000000e+000  0.000000e+000
    outer loop
      vertex  1.630000e+001 -1.700000e+001  1.060000e+002
      vertex  1.630000e+001  1.700000e+001  1.060000e+002
      vertex  1.630000e+001 -1.700000e+001  1.526000e+002
    endloop
  endfacet
  facet normal  1.000000e+000  -0.000000e+000  0.000000e+000
    outer loop
      vertex  1.630000e+001 -1.700000e+001  1.526000e+002
      vertex  1.630000e+001  1.700000e+001  1.060000e+002
      vertex  1.630000e+001  1.700000e+001  1.526000e+002
    endloop
  endfacet
  facet normal  1.000000e+000  0.000000e+000  0.000000e+000
    outer loop
      vertex  1.630000e+001  1.900000e+001  0.000000e+000
      vertex  1.630000e+001  2.400000e+001  0.000000e+000
      vertex  1.630000e+001  1.900000e+001  4.100000e+001
    endloop
  endfacet
  facet normal  1.000000e+000  -0.000000e+000  0.000000e+000
    outer loop
      vertex  1.630000e+001  1.900000e+001  4.100000e+001
      vertex  1.630000e+001  2.400000e+001  0.000000e+000
      vertex  1.630000e+001  2.400000e+001  1.060000e+002
    endloop
  endfacet
  facet normal -1.000000e+000  0.000000e+000  0.000000e+000
    outer loop
      vertex -1.630000e+001  1.900000e+001  4.100000e+001
      vertex -1.630000e+001 -1.900000e+001  4.100000e+001
      vertex -1.630000e+001 -2.400000e+001  1.060000e+002
    endloop
  endfacet
  facet normal -1.000000e+000  0.000000e+000  0.000000e+000
    outer loop
      vertex -1.630000e+001  1.900000e+001  4.100000e+001
      vertex -1.630000e+001 -2.400000e+001  1.060000e+002
      vertex -1.630000e+001 -1.700000e+001  1.060000e+002
    endloop
  endfacet
  facet normal -1.000000e+000  0.000000e+000  0.000000e+000
    outer loop
      vertex -1.630000e+001  1.900000e+001  4.100000e+001
      vertex -1.630000e+001 -1.700000e+001  1.060000e+002
      vertex -1.630000e+001  1.700000e+001  1.060000e+002
    endloop
  endfacet
  facet normal -1.000000e+000  0.000000e+000  0.000000e+000
    outer loop
      vertex -1.630000e+001  1.900000e+001  4.100000e+001
      vertex -1.630000e+001  1.700000e+001  1.060000e+002
      vertex -1.630000e+001  2.400000e+001  1.060000e+002
    endloop
  endfacet
  facet normal -1.000000e+000  0.000000e+000  -0.000000e+000
    outer loop
      vertex -1.630000e+001  1.900000e+001  4.100000e+001
      vertex -1.630000e+001  2.400000e+001  1.060000e+002
      vertex -1.630000e+001  2.400000e+001  0.000000e+000
    endloop
  endfacet
  facet normal -1.000000e+000  0.000000e+000  0.000000e+000
    outer loop
      vertex -1.630000e+001  1.900000e+001  4.100000e+001
      vertex -1.630000e+001  2.400000e+001  0.000000e+000
      vertex -1.630000e+001  1.900000e+001  0.000000e+000
    endloop
  endfacet
  facet normal -1.000000e+000  0.000000e+000  0.000000e+000
    outer loop
      vertex -1.630000e+001  1.700000e+001  1.060000e+002
      vertex -1.630000e+001 -1.700000e+001  1.060000e+002
      vertex -1.630000e+001  1.700000e+001  1.526000e+002
    endloop
  endfacet
  facet normal -1.000000e+000  -0.000000e+000  0.000000e+000
    outer loop
      vertex -1.630000e+001  1.700000e+001  1.526000e+002
      vertex -1.630000e+001 -1.700000e+001  1.060000e+002
      vertex -1.630000e+001 -1.700000e+001  1.526000e+002
    endloop
  endfacet
  facet normal -1.000000e+000  0.000000e+000  0.000000e+000
    outer loop
      vertex -1.630000e+001 -1.900000e+001  0.000000e+000
      vertex -1.630000e+001 -2.400000e+001  0.000000e+000
      vertex -1.630000e+001 -1.900000e+001  4.100000e+001
    endloop
  endfacet
  facet normal -1.000000e+000  -0.000000e+000  0.000000e+000
    outer loop
      vertex -1.630000e+001 -1.900000e+001  4.100000e+001
      vertex -1.630000e+001 -2.400000e+001  0.000000e+000
      vertex -1.630000e+001 -2.400000e+001  1.060000e+002
    endloop
  endfacet
  facet normal  0.000000e+000  1.000000e+000  0.000000e+000
    outer loop
      vertex -1.630000e+001  2.400000e+001  0.000000e+000
      vertex -1.630000e+001  2.400000e+001  1.060000e+002
      vertex  1.630000e+001  2.400000e+001  0.000000e+000
    endloop
  endfacet
  facet normal  0.000000e+000  1.000000e+000  -0.000000e+000
    outer loop
      vertex  1.630000e+001  2.400000e+001  0.000000e+000
      vertex -1.630000e+001  2.400000e+001  1.060000e+002
      vertex  1.630000e+001  2.400000e+001  1.060000e+002
    endloop
  endfacet
  facet normal  -0.000000e+000  0.000000e+000  1.000000e+000
    outer loop
      vertex  1.630000e+001  2.400000e+001  1.060000e+002
      vertex -1.630000e+001  2.400000e+001  1.060000e+002
      vertex -1.630000e+001  1.700000e+001  1.060000e+002
    endloop
  endfacet
  facet normal  0.000000e+000  0.000000e+000  1.000000e+000
    outer loop
      vertex  1.630000e+001  2.400000e+001  1.060000e+002
      vertex -1.630000e+001  1.700000e+001  1.060000e+002
      vertex -1.450000e+001  1.700000e+001  1.060000e+002
    endloop
  endfacet
  facet normal  0.000000e+000  0.000000e+000  1.000000e+000
    outer loop
      vertex  1.630000e+001  2.400000e+001  1.060000e+002
      vertex -1.450000e+001  1.700000e+001  1.060000e+002
      vertex  1.450000e+001  1.700000e+001  1.060000e+002
    endloop
  endfacet
  facet normal  0.000000e+000  0.000000e+000  1.000000e+000
    outer loop
      vertex  1.630000e+001  2.400000e+001  1.060000e+002
      vertex  1.450000e+001  1.700000e+001  1.060000e+002
      vertex  1.630000e+001  1.700000e+001  1.060000e+002
    endloop
  endfacet
  facet normal  0.000000e+000  -0.000000e+000  1.000000e+000
    outer loop
      vertex -1.630000e+001 -2.400000e+001  1.060000e+002
      vertex  1.630000e+001 -2.400000e+001  1.060000e+002
      vertex  1.630000e+001 -1.700000e+001  1.060000e+002
    endloop
  endfacet
  facet normal  0.000000e+000  0.000000e+000  1.000000e+000
    outer loop
      vertex -1.630000e+001 -2.400000e+001  1.060000e+002
      vertex  1.630000e+001 -1.700000e+001  1.060000e+002
      vertex  1.450000e+001 -1.700000e+001  1.060000e+002
    endloop
  endfacet
  facet normal  0.000000e+000  0.000000e+000  1.000000e+000
    outer loop
      vertex -1.630000e+001 -2.400000e+001  1.060000e+002
      vertex  1.450000e+001 -1.700000e+001  1.060000e+002
      vertex -1.450000e+001 -1.700000e+001  1.060000e+002
    endloop
  endfacet
  facet normal  0.000000e+000  0.000000e+000  1.000000e+000
    outer loop
      vertex -1.630000e+001 -2.400000e+001  1.060000e+002
      vertex -1.450000e+001 -1.700000e+001  1.060000e+002
      vertex -1.630000e+001 -1.700000e+001  1.060000e+002
    endloop
  endfacet
  facet normal  0.000000e+000  0.000000e+000  1.000000e+000
    outer loop
      vertex -1.450000e+001 -1.700000e+001  1.060000e+002
      vertex  1.450000e+001 -1.700000e+001  1.060000e+002
      vertex -1.450000e+001  1.700000e+001  1.060000e+002
    endloop
  endfacet
  facet normal  -0.000000e+000  0.000000e+000  1.000000e+000
    outer loop
      vertex -1.450000e+001  1.700000e+001  1.060000e+002
      vertex  1.450000e+001 -1.700000e+001  1.060000e+002
      vertex  1.450000e+001  1.700000e+001  1.060000e+002
    endloop
  endfacet
  facet normal -1.000000e+000  -0.000000e+000  0.000000e+000
    outer loop
      vertex  1.450000e+001 -1.700000e+001  1.526000e+002
      vertex  1.450000e+001  1.700000e+001  1.526000e+002
      vertex  1.450000e+001 -1.700000e+001  1.060000e+002
    endloop
  endfacet
  facet normal -1.000000e+000  0.000000e+000  0.000000e+000
    outer loop
      vertex  1.450000e+001 -1.700000e+001  1.060000e+002
      vertex  1.450000e+001  1.700000e+001  1.526000e+002
      vertex  1.450000e+001  1.700000e+001  1.060000e+002
    endloop
  endfacet
  facet normal  0.000000e+000 -1.000000e+000  0.000000e+000
    outer loop
      vertex  1.450000e+001 -1.700000e+001  1.526000e+002
      vertex  1.450000e+001 -1.700000e+001  1.060000e+002
      vertex  1.630000e+001 -1.700000e+001  1.526000e+002
    endloop
  endfacet
  facet normal  0.000000e+000 -1.000000e+000  -0.000000e+000
    outer loop
      vertex  1.630000e+001 -1.700000e+001  1.526000e+002
      vertex  1.450000e+001 -1.700000e+001  1.060000e+002
      vertex  1.630000e+001 -1.700000e+001  1.060000e+002
    endloop
  endfacet
  facet normal  0.000000e+000 -1.000000e+000  0.000000e+000
    outer loop
      vertex -1.630000e+001 -1.700000e+001  1.526000e+002
      vertex -1.630000e+001 -1.700000e+001  1.060000e+002
      vertex -1.450000e+001 -1.700000e+001  1.526000e+002
    endloop
  endfacet
  facet normal  0.000000e+000 -1.000000e+000  -0.000000e+000
    outer loop
      vertex -1.450000e+001 -1.700000e+001  1.526000e+002
      vertex -1.630000e+001 -1.700000e+001  1.060000e+002
      vertex -1.450000e+001 -1.700000e+001  1.060000e+002
    endloop
  endfacet
  facet normal  1.000000e+000  -0.000000e+000  0.000000e+000
    outer loop
      vertex -1.450000e+001  1.700000e+001  1.526000e+002
      vertex -1.450000e+001 -1.700000e+001  1.526000e+002
      vertex -1.450000e+001  1.700000e+001  1.060000e+002
    endloop
  endfacet
  facet normal  1.000000e+000  0.000000e+000  0.000000e+000
    outer loop
      vertex -1.450000e+001  1.700000e+001  1.060000e+002
      vertex -1.450000e+001 -1.700000e+001  1.526000e+002
      vertex -1.450000e+001 -1.700000e+001  1.060000e+002
    endloop
  endfacet
  facet normal  0.000000e+000  1.000000e+000  -0.000000e+000
    outer loop
      vertex -1.450000e+001  1.700000e+001  1.526000e+002
      vertex -1.450000e+001  1.700000e+001  1.060000e+002
      vertex -1.630000e+001  1.700000e+001  1.526000e+002
    endloop
  endfacet
  facet normal  0.000000e+000  1.000000e+000  0.000000e+000
    outer loop
      vertex -1.630000e+001  1.700000e+001  1.526000e+002
      vertex -1.450000e+001  1.700000e+001  1.060000e+002
      vertex -1.630000e+001  1.700000e+001  1.060000e+002
    endloop
  endfacet
  facet normal  0.000000e+000  1.000000e+000  -0.000000e+000
    outer loop
      vertex  1.630000e+001  1.700000e+001  1.526000e+002
      vertex  1.630000e+001  1.700000e+001  1.060000e+002
      vertex  1.450000e+001  1.700000e+001  1.526000e+002
    endloop
  endfacet
  facet normal  0.000000e+000  1.000000e+000  0.000000e+000
    outer loop
      vertex  1.450000e+001  1.700000e+001  1.526000e+002
      vertex  1.630000e+001  1.700000e+001  1.060000e+002
      vertex  1.450000e+001  1.700000e+001  1.060000e+002
    endloop
  endfacet
  facet normal  0.000000e+000  0.000000e+000 -1.000000e+000
    outer loop
      vertex -1.630000e+001 -2.400000e+001  0.000000e+000
      vertex -1.630000e+001 -1.900000e+001  0.000000e+000
      vertex  1.630000e+001 -2.400000e+001  0.000000e+000
    endloop
  endfacet
  facet normal  0.000000e+000  0.000000e+000 -1.000000e+000
    outer loop
      vertex  1.630000e+001 -2.400000e+001  0.000000e+000
      vertex -1.630000e+001 -1.900000e+001  0.000000e+000
      vertex  1.630000e+001 -1.900000e+001  0.000000e+000
    endloop
  endfacet
  facet normal  0.000000e+000  0.000000e+000 -1.000000e+000
    outer loop
      vertex -1.630000e+001  1.900000e+001  0.000000e+000
      vertex -1.630000e+001  2.400000e+001  0.000000e+000
      vertex  1.630000e+001  1.900000e+001  0.000000e+000
    endloop
  endfacet
  facet normal  0.000000e+000  0.000000e+000 -1.000000e+000
    outer loop
      vertex  1.630000e+001  1.900000e+001  0.000000e+000
      vertex -1.630000e+001  2.400000e+001  0.000000e+000
      vertex  1.630000e+001  2.400000e+001  0.000000e+000
    endloop
  endfacet
  facet normal  0.000000e+000  1.000000e+000  0.000000e+000
    outer loop
      vertex -1.630000e+001 -1.900000e+001  0.000000e+000
      vertex -1.630000e+001 -1.900000e+001  4.100000e+001
      vertex  1.630000e+001 -1.900000e+001  0.000000e+000
    endloop
  endfacet
  facet normal  0.000000e+000  1.000000e+000  -0.000000e+000
    outer loop
      vertex  1.630000e+001 -1.900000e+001  0.000000e+000
      vertex -1.630000e+001 -1.900000e+001  4.100000e+001
      vertex  1.630000e+001 -1.900000e+001  4.100000e+001
    endloop
  endfacet
  facet normal  0.000000e+000 -1.000000e+000  -0.000000e+000
    outer loop
      vertex  1.630000e+001  1.900000e+001  0.000000e+000
      vertex  1.630000e+001  1.900000e+001  4.100000e+001
      vertex -1.630000e+001  1.900000e+001  0.000000e+000
    endloop
  endfacet
  facet normal  0.000000e+000 -1.000000e+000  0.000000e+000
    outer loop
      vertex -1.630000e+001  1.900000e+001  0.000000e+000
      vertex  1.630000e+001  1.900000e+001  4.100000e+001
      vertex -1.630000e+001  1.900000e+001  4.100000e+001
    endloop
  endfacet
  facet normal  0.000000e+000  0.000000e+000 -1.000000e+000
    outer loop
      vertex -1.630000e+001 -1.900000e+001  4.100000e+001
      vertex -1.630000e+001  1.900000e+001  4.100000e+001
      vertex  1.630000e+001 -1.900000e+001  4.100000e+001
    endloop
  endfacet
  facet normal  0.000000e+000  0.000000e+000 -1.000000e+000
    outer loop
      vertex  1.630000e+001 -1.900000e+001  4.100000e+001
      vertex -1.630000e+001  1.900000e+001  4.100000e+001
      vertex  1.630000e+001  1.900000e+001  4.100000e+001
    endloop
  endfacet
endsolid CATIA STL
