solid CATIA STL
  facet normal  0.000000e+000  0.000000e+000  1.000000e+000
    outer loop
      vertex  2.400000e+001 -1.500000e+001  7.100000e+001
      vertex  1.000000e+001 -1.000000e+001  7.100000e+001
      vertex -2.400000e+001 -1.500000e+001  7.100000e+001
    endloop
  endfacet
  facet normal  0.000000e+000  0.000000e+000  1.000000e+000
    outer loop
      vertex -2.400000e+001 -1.500000e+001  7.100000e+001
      vertex  1.000000e+001 -1.000000e+001  7.100000e+001
      vertex -1.000000e+001 -1.000000e+001  7.100000e+001
    endloop
  endfacet
  facet normal  0.000000e+000  0.000000e+000  1.000000e+000
    outer loop
      vertex -2.400000e+001 -1.500000e+001  7.100000e+001
      vertex -1.000000e+001 -1.000000e+001  7.100000e+001
      vertex -2.400000e+001  1.500000e+001  7.100000e+001
    endloop
  endfacet
  facet normal  0.000000e+000  0.000000e+000  1.000000e+000
    outer loop
      vertex -2.400000e+001  1.500000e+001  7.100000e+001
      vertex -1.000000e+001 -1.000000e+001  7.100000e+001
      vertex -1.000000e+001  1.000000e+001  7.100000e+001
    endloop
  endfacet
  facet normal  0.000000e+000  -0.000000e+000  1.000000e+000
    outer loop
      vertex -2.400000e+001  1.500000e+001  7.100000e+001
      vertex -1.000000e+001  1.000000e+001  7.100000e+001
      vertex  2.400000e+001  1.500000e+001  7.100000e+001
    endloop
  endfacet
  facet normal  0.000000e+000  0.000000e+000  1.000000e+000
    outer loop
      vertex  2.400000e+001  1.500000e+001  7.100000e+001
      vertex -1.000000e+001  1.000000e+001  7.100000e+001
      vertex  1.000000e+001  1.000000e+001  7.100000e+001
    endloop
  endfacet
  facet normal  -0.000000e+000  0.000000e+000  1.000000e+000
    outer loop
      vertex  2.400000e+001  1.500000e+001  7.100000e+001
      vertex  1.000000e+001  1.000000e+001  7.100000e+001
      vertex  2.400000e+001 -1.500000e+001  7.100000e+001
    endloop
  endfacet
  facet normal  0.000000e+000  0.000000e+000  1.000000e+000
    outer loop
      vertex  2.400000e+001 -1.500000e+001  7.100000e+001
      vertex  1.000000e+001  1.000000e+001  7.100000e+001
      vertex  1.000000e+001 -1.000000e+001  7.100000e+001
    endloop
  endfacet
  facet normal -1.000000e+000  0.000000e+000  0.000000e+000
    outer loop
      vertex -1.000000e+001  1.000000e+001  7.100000e+001
      vertex -1.000000e+001 -1.000000e+001  7.100000e+001
      vertex -1.000000e+001  1.000000e+001  1.610000e+002
    endloop
  endfacet
  facet normal -1.000000e+000  -0.000000e+000  0.000000e+000
    outer loop
      vertex -1.000000e+001  1.000000e+001  1.610000e+002
      vertex -1.000000e+001 -1.000000e+001  7.100000e+001
      vertex -1.000000e+001 -1.000000e+001  1.610000e+002
    endloop
  endfacet
  facet normal  0.000000e+000  1.000000e+000  0.000000e+000
    outer loop
      vertex -1.000000e+001  1.000000e+001  7.100000e+001
      vertex -1.000000e+001  1.000000e+001  1.610000e+002
      vertex  1.000000e+001  1.000000e+001  7.100000e+001
    endloop
  endfacet
  facet normal  0.000000e+000  1.000000e+000  -0.000000e+000
    outer loop
      vertex  1.000000e+001  1.000000e+001  7.100000e+001
      vertex -1.000000e+001  1.000000e+001  1.610000e+002
      vertex  1.000000e+001  1.000000e+001  1.610000e+002
    endloop
  endfacet
  facet normal  0.000000e+000 -1.000000e+000  -0.000000e+000
    outer loop
      vertex  1.000000e+001 -1.000000e+001  7.100000e+001
      vertex  1.000000e+001 -1.000000e+001  1.610000e+002
      vertex -1.000000e+001 -1.000000e+001  7.100000e+001
    endloop
  endfacet
  facet normal  0.000000e+000 -1.000000e+000  0.000000e+000
    outer loop
      vertex -1.000000e+001 -1.000000e+001  7.100000e+001
      vertex  1.000000e+001 -1.000000e+001  1.610000e+002
      vertex -1.000000e+001 -1.000000e+001  1.610000e+002
    endloop
  endfacet
  facet normal  1.000000e+000  0.000000e+000  0.000000e+000
    outer loop
      vertex  1.000000e+001 -1.000000e+001  7.100000e+001
      vertex  1.000000e+001  1.000000e+001  7.100000e+001
      vertex  1.000000e+001 -1.000000e+001  1.610000e+002
    endloop
  endfacet
  facet normal  1.000000e+000  -0.000000e+000  0.000000e+000
    outer loop
      vertex  1.000000e+001 -1.000000e+001  1.610000e+002
      vertex  1.000000e+001  1.000000e+001  7.100000e+001
      vertex  1.000000e+001  1.000000e+001  1.610000e+002
    endloop
  endfacet
  facet normal  0.000000e+000  0.000000e+000 -1.000000e+000
    outer loop
      vertex -2.500000e+001 -4.100000e+001  1.610000e+002
      vertex -2.500000e+001  2.000000e+001  1.610000e+002
      vertex -1.000000e+001  1.000000e+001  1.610000e+002
    endloop
  endfacet
  facet normal  0.000000e+000  -0.000000e+000 -1.000000e+000
    outer loop
      vertex -2.500000e+001 -4.100000e+001  1.610000e+002
      vertex -1.000000e+001  1.000000e+001  1.610000e+002
      vertex -1.000000e+001 -1.000000e+001  1.610000e+002
    endloop
  endfacet
  facet normal  0.000000e+000  -0.000000e+000 -1.000000e+000
    outer loop
      vertex -2.500000e+001 -4.100000e+001  1.610000e+002
      vertex -1.000000e+001 -1.000000e+001  1.610000e+002
      vertex  1.000000e+001 -1.000000e+001  1.610000e+002
    endloop
  endfacet
  facet normal  0.000000e+000  -0.000000e+000 -1.000000e+000
    outer loop
      vertex -2.500000e+001 -4.100000e+001  1.610000e+002
      vertex  1.000000e+001 -1.000000e+001  1.610000e+002
      vertex  2.500000e+001 -4.100000e+001  1.610000e+002
    endloop
  endfacet
  facet normal  0.000000e+000  0.000000e+000 -1.000000e+000
    outer loop
      vertex  1.000000e+001 -1.000000e+001  1.610000e+002
      vertex  1.000000e+001  1.000000e+001  1.610000e+002
      vertex  2.500000e+001 -4.100000e+001  1.610000e+002
    endloop
  endfacet
  facet normal  0.000000e+000  0.000000e+000 -1.000000e+000
    outer loop
      vertex  2.500000e+001 -4.100000e+001  1.610000e+002
      vertex  1.000000e+001  1.000000e+001  1.610000e+002
      vertex  2.500000e+001  2.000000e+001  1.610000e+002
    endloop
  endfacet
  facet normal  0.000000e+000  0.000000e+000 -1.000000e+000
    outer loop
      vertex  1.000000e+001  1.000000e+001  1.610000e+002
      vertex -1.000000e+001  1.000000e+001  1.610000e+002
      vertex  2.500000e+001  2.000000e+001  1.610000e+002
    endloop
  endfacet
  facet normal  -0.000000e+000  0.000000e+000 -1.000000e+000
    outer loop
      vertex  2.500000e+001  2.000000e+001  1.610000e+002
      vertex -1.000000e+001  1.000000e+001  1.610000e+002
      vertex -2.500000e+001  2.000000e+001  1.610000e+002
    endloop
  endfacet
  facet normal  0.000000e+000  1.000000e+000  0.000000e+000
    outer loop
      vertex -2.500000e+001  2.000000e+001  2.810000e+002
      vertex -2.000000e+001  2.000000e+001  1.760000e+002
      vertex -2.500000e+001  2.000000e+001  1.610000e+002
    endloop
  endfacet
  facet normal  0.000000e+000  1.000000e+000  0.000000e+000
    outer loop
      vertex -2.500000e+001  2.000000e+001  1.610000e+002
      vertex -2.000000e+001  2.000000e+001  1.760000e+002
      vertex  2.000000e+001  2.000000e+001  1.760000e+002
    endloop
  endfacet
  facet normal  0.000000e+000  1.000000e+000  0.000000e+000
    outer loop
      vertex -2.500000e+001  2.000000e+001  1.610000e+002
      vertex  2.000000e+001  2.000000e+001  1.760000e+002
      vertex  2.500000e+001  2.000000e+001  1.610000e+002
    endloop
  endfacet
  facet normal  0.000000e+000  1.000000e+000  0.000000e+000
    outer loop
      vertex -2.000000e+001  2.000000e+001  1.760000e+002
      vertex -2.500000e+001  2.000000e+001  2.810000e+002
      vertex -2.000000e+001  2.000000e+001  2.760000e+002
    endloop
  endfacet
  facet normal  0.000000e+000  1.000000e+000  -0.000000e+000
    outer loop
      vertex -2.000000e+001  2.000000e+001  2.760000e+002
      vertex -2.500000e+001  2.000000e+001  2.810000e+002
      vertex  2.500000e+001  2.000000e+001  2.810000e+002
    endloop
  endfacet
  facet normal  0.000000e+000  1.000000e+000  0.000000e+000
    outer loop
      vertex -2.000000e+001  2.000000e+001  2.760000e+002
      vertex  2.500000e+001  2.000000e+001  2.810000e+002
      vertex  2.000000e+001  2.000000e+001  2.760000e+002
    endloop
  endfacet
  facet normal  -0.000000e+000  1.000000e+000  0.000000e+000
    outer loop
      vertex  2.000000e+001  2.000000e+001  2.760000e+002
      vertex  2.500000e+001  2.000000e+001  2.810000e+002
      vertex  2.500000e+001  2.000000e+001  1.610000e+002
    endloop
  endfacet
  facet normal  0.000000e+000  1.000000e+000  0.000000e+000
    outer loop
      vertex  2.000000e+001  2.000000e+001  2.760000e+002
      vertex  2.500000e+001  2.000000e+001  1.610000e+002
      vertex  2.000000e+001  2.000000e+001  1.760000e+002
    endloop
  endfacet
  facet normal  0.000000e+000  0.000000e+000 -1.000000e+000
    outer loop
      vertex  2.000000e+001  2.000000e+001  2.760000e+002
      vertex  2.000000e+001 -3.000000e+001  2.760000e+002
      vertex -2.000000e+001  2.000000e+001  2.760000e+002
    endloop
  endfacet
  facet normal  0.000000e+000  0.000000e+000 -1.000000e+000
    outer loop
      vertex -2.000000e+001  2.000000e+001  2.760000e+002
      vertex  2.000000e+001 -3.000000e+001  2.760000e+002
      vertex -2.000000e+001 -3.000000e+001  2.760000e+002
    endloop
  endfacet
  facet normal  1.000000e+000  0.000000e+000  0.000000e+000
    outer loop
      vertex -2.000000e+001 -3.000000e+001  1.760000e+002
      vertex -2.000000e+001  2.000000e+001  1.760000e+002
      vertex -2.000000e+001 -3.000000e+001  2.760000e+002
    endloop
  endfacet
  facet normal  1.000000e+000  -0.000000e+000  0.000000e+000
    outer loop
      vertex -2.000000e+001 -3.000000e+001  2.760000e+002
      vertex -2.000000e+001  2.000000e+001  1.760000e+002
      vertex -2.000000e+001  2.000000e+001  2.760000e+002
    endloop
  endfacet
  facet normal  0.000000e+000  0.000000e+000  1.000000e+000
    outer loop
      vertex -2.000000e+001  2.000000e+001  1.760000e+002
      vertex -2.000000e+001 -3.000000e+001  1.760000e+002
      vertex  2.000000e+001  2.000000e+001  1.760000e+002
    endloop
  endfacet
  facet normal  0.000000e+000  0.000000e+000  1.000000e+000
    outer loop
      vertex  2.000000e+001  2.000000e+001  1.760000e+002
      vertex -2.000000e+001 -3.000000e+001  1.760000e+002
      vertex  2.000000e+001 -3.000000e+001  1.760000e+002
    endloop
  endfacet
  facet normal -1.000000e+000  -0.000000e+000  0.000000e+000
    outer loop
      vertex  2.000000e+001 -3.000000e+001  2.760000e+002
      vertex  2.000000e+001  2.000000e+001  2.760000e+002
      vertex  2.000000e+001 -3.000000e+001  1.760000e+002
    endloop
  endfacet
  facet normal -1.000000e+000  0.000000e+000  0.000000e+000
    outer loop
      vertex  2.000000e+001 -3.000000e+001  1.760000e+002
      vertex  2.000000e+001  2.000000e+001  2.760000e+002
      vertex  2.000000e+001  2.000000e+001  1.760000e+002
    endloop
  endfacet
  facet normal  0.000000e+000  1.000000e+000  0.000000e+000
    outer loop
      vertex  2.000000e+001 -3.000000e+001  1.760000e+002
      vertex -2.000000e+001 -3.000000e+001  1.760000e+002
      vertex  2.000000e+001 -3.000000e+001  2.760000e+002
    endloop
  endfacet
  facet normal  0.000000e+000  1.000000e+000  0.000000e+000
    outer loop
      vertex  2.000000e+001 -3.000000e+001  2.760000e+002
      vertex -2.000000e+001 -3.000000e+001  1.760000e+002
      vertex -2.000000e+001 -3.000000e+001  2.760000e+002
    endloop
  endfacet
  facet normal  0.000000e+000  0.000000e+000  1.000000e+000
    outer loop
      vertex -2.500000e+001 -4.100000e+001  2.810000e+002
      vertex  2.500000e+001 -4.100000e+001  2.810000e+002
      vertex -2.500000e+001  2.000000e+001  2.810000e+002
    endloop
  endfacet
  facet normal  -0.000000e+000  0.000000e+000  1.000000e+000
    outer loop
      vertex -2.500000e+001  2.000000e+001  2.810000e+002
      vertex  2.500000e+001 -4.100000e+001  2.810000e+002
      vertex  2.500000e+001  2.000000e+001  2.810000e+002
    endloop
  endfacet
  facet normal  1.000000e+000  0.000000e+000  0.000000e+000
    outer loop
      vertex  2.500000e+001 -4.100000e+001  1.610000e+002
      vertex  2.500000e+001  2.000000e+001  1.610000e+002
      vertex  2.500000e+001 -4.100000e+001  2.810000e+002
    endloop
  endfacet
  facet normal  1.000000e+000  -0.000000e+000  0.000000e+000
    outer loop
      vertex  2.500000e+001 -4.100000e+001  2.810000e+002
      vertex  2.500000e+001  2.000000e+001  1.610000e+002
      vertex  2.500000e+001  2.000000e+001  2.810000e+002
    endloop
  endfacet
  facet normal  0.000000e+000 -1.000000e+000  -0.000000e+000
    outer loop
      vertex  2.500000e+001 -4.100000e+001  1.610000e+002
      vertex  2.500000e+001 -4.100000e+001  2.810000e+002
      vertex -2.500000e+001 -4.100000e+001  1.610000e+002
    endloop
  endfacet
  facet normal  0.000000e+000 -1.000000e+000  0.000000e+000
    outer loop
      vertex -2.500000e+001 -4.100000e+001  1.610000e+002
      vertex  2.500000e+001 -4.100000e+001  2.810000e+002
      vertex -2.500000e+001 -4.100000e+001  2.810000e+002
    endloop
  endfacet
  facet normal -1.000000e+000  0.000000e+000  0.000000e+000
    outer loop
      vertex -2.500000e+001  2.000000e+001  1.610000e+002
      vertex -2.500000e+001 -4.100000e+001  1.610000e+002
      vertex -2.500000e+001  2.000000e+001  2.810000e+002
    endloop
  endfacet
  facet normal -1.000000e+000  -0.000000e+000  0.000000e+000
    outer loop
      vertex -2.500000e+001  2.000000e+001  2.810000e+002
      vertex -2.500000e+001 -4.100000e+001  1.610000e+002
      vertex -2.500000e+001 -4.100000e+001  2.810000e+002
    endloop
  endfacet
  facet normal  0.000000e+000 -1.000000e+000  0.000000e+000
    outer loop
      vertex -1.900000e+001 -1.500000e+001  4.100000e+001
      vertex -2.400000e+001 -1.500000e+001  0.000000e+000
      vertex -1.900000e+001 -1.500000e+001  0.000000e+000
    endloop
  endfacet
  facet normal  -0.000000e+000 -9.999999e-001  0.000000e+000
    outer loop
      vertex -2.400000e+001 -1.500000e+001  0.000000e+000
      vertex -1.900000e+001 -1.500000e+001  4.100000e+001
      vertex -2.400000e+001 -1.500000e+001  7.100000e+001
    endloop
  endfacet
  facet normal  0.000000e+000 -1.000000e+000  0.000000e+000
    outer loop
      vertex -2.400000e+001 -1.500000e+001  7.100000e+001
      vertex -1.900000e+001 -1.500000e+001  4.100000e+001
      vertex  1.900000e+001 -1.500000e+001  4.100000e+001
    endloop
  endfacet
  facet normal  0.000000e+000 -1.000000e+000  0.000000e+000
    outer loop
      vertex -2.400000e+001 -1.500000e+001  7.100000e+001
      vertex  1.900000e+001 -1.500000e+001  4.100000e+001
      vertex  2.400000e+001 -1.500000e+001  7.100000e+001
    endloop
  endfacet
  facet normal  0.000000e+000 -1.000000e+000  0.000000e+000
    outer loop
      vertex  2.400000e+001 -1.500000e+001  7.100000e+001
      vertex  1.900000e+001 -1.500000e+001  4.100000e+001
      vertex  1.900000e+001 -1.500000e+001  0.000000e+000
    endloop
  endfacet
  facet normal  0.000000e+000 -9.999999e-001  0.000000e+000
    outer loop
      vertex  2.400000e+001 -1.500000e+001  7.100000e+001
      vertex  1.900000e+001 -1.500000e+001  0.000000e+000
      vertex  2.400000e+001 -1.500000e+001  0.000000e+000
    endloop
  endfacet
  facet normal  0.000000e+000  1.000000e+000  0.000000e+000
    outer loop
      vertex  1.900000e+001  1.500000e+001  4.100000e+001
      vertex  2.400000e+001  1.500000e+001  0.000000e+000
      vertex  1.900000e+001  1.500000e+001  0.000000e+000
    endloop
  endfacet
  facet normal  -0.000000e+000  9.999999e-001  0.000000e+000
    outer loop
      vertex  2.400000e+001  1.500000e+001  0.000000e+000
      vertex  1.900000e+001  1.500000e+001  4.100000e+001
      vertex  2.400000e+001  1.500000e+001  7.100000e+001
    endloop
  endfacet
  facet normal  0.000000e+000  1.000000e+000  0.000000e+000
    outer loop
      vertex  2.400000e+001  1.500000e+001  7.100000e+001
      vertex  1.900000e+001  1.500000e+001  4.100000e+001
      vertex -1.900000e+001  1.500000e+001  4.100000e+001
    endloop
  endfacet
  facet normal  0.000000e+000  1.000000e+000  -0.000000e+000
    outer loop
      vertex  2.400000e+001  1.500000e+001  7.100000e+001
      vertex -1.900000e+001  1.500000e+001  4.100000e+001
      vertex -2.400000e+001  1.500000e+001  7.100000e+001
    endloop
  endfacet
  facet normal  0.000000e+000  1.000000e+000  0.000000e+000
    outer loop
      vertex -2.400000e+001  1.500000e+001  7.100000e+001
      vertex -1.900000e+001  1.500000e+001  4.100000e+001
      vertex -1.900000e+001  1.500000e+001  0.000000e+000
    endloop
  endfacet
  facet normal  0.000000e+000  9.999999e-001  0.000000e+000
    outer loop
      vertex -2.400000e+001  1.500000e+001  7.100000e+001
      vertex -1.900000e+001  1.500000e+001  0.000000e+000
      vertex -2.400000e+001  1.500000e+001  0.000000e+000
    endloop
  endfacet
  facet normal  0.000000e+000  0.000000e+000 -1.000000e+000
    outer loop
      vertex -2.400000e+001 -1.500000e+001  0.000000e+000
      vertex -2.400000e+001  1.500000e+001  0.000000e+000
      vertex -1.900000e+001 -1.500000e+001  0.000000e+000
    endloop
  endfacet
  facet normal  0.000000e+000  0.000000e+000 -1.000000e+000
    outer loop
      vertex -1.900000e+001 -1.500000e+001  0.000000e+000
      vertex -2.400000e+001  1.500000e+001  0.000000e+000
      vertex -1.900000e+001  1.500000e+001  0.000000e+000
    endloop
  endfacet
  facet normal  0.000000e+000  0.000000e+000 -1.000000e+000
    outer loop
      vertex  1.900000e+001 -1.500000e+001  0.000000e+000
      vertex  1.900000e+001  1.500000e+001  0.000000e+000
      vertex  2.400000e+001 -1.500000e+001  0.000000e+000
    endloop
  endfacet
  facet normal  0.000000e+000  0.000000e+000 -1.000000e+000
    outer loop
      vertex  2.400000e+001 -1.500000e+001  0.000000e+000
      vertex  1.900000e+001  1.500000e+001  0.000000e+000
      vertex  2.400000e+001  1.500000e+001  0.000000e+000
    endloop
  endfacet
  facet normal  -0.000000e+000  0.000000e+000 -1.000000e+000
    outer loop
      vertex -1.900000e+001  1.500000e+001  4.100000e+001
      vertex  1.900000e+001  1.500000e+001  4.100000e+001
      vertex -1.900000e+001 -1.500000e+001  4.100000e+001
    endloop
  endfacet
  facet normal  0.000000e+000  0.000000e+000 -1.000000e+000
    outer loop
      vertex -1.900000e+001 -1.500000e+001  4.100000e+001
      vertex  1.900000e+001  1.500000e+001  4.100000e+001
      vertex  1.900000e+001 -1.500000e+001  4.100000e+001
    endloop
  endfacet
  facet normal -1.000000e+000  0.000000e+000  0.000000e+000
    outer loop
      vertex  1.900000e+001  1.500000e+001  0.000000e+000
      vertex  1.900000e+001 -1.500000e+001  0.000000e+000
      vertex  1.900000e+001  1.500000e+001  4.100000e+001
    endloop
  endfacet
  facet normal -1.000000e+000  -0.000000e+000  0.000000e+000
    outer loop
      vertex  1.900000e+001  1.500000e+001  4.100000e+001
      vertex  1.900000e+001 -1.500000e+001  0.000000e+000
      vertex  1.900000e+001 -1.500000e+001  4.100000e+001
    endloop
  endfacet
  facet normal  1.000000e+000  0.000000e+000  0.000000e+000
    outer loop
      vertex -1.900000e+001 -1.500000e+001  0.000000e+000
      vertex -1.900000e+001  1.500000e+001  0.000000e+000
      vertex -1.900000e+001 -1.500000e+001  4.100000e+001
    endloop
  endfacet
  facet normal  1.000000e+000  -0.000000e+000  0.000000e+000
    outer loop
      vertex -1.900000e+001 -1.500000e+001  4.100000e+001
      vertex -1.900000e+001  1.500000e+001  0.000000e+000
      vertex -1.900000e+001  1.500000e+001  4.100000e+001
    endloop
  endfacet
  facet normal  1.000000e+000  0.000000e+000  0.000000e+000
    outer loop
      vertex  2.400000e+001 -1.500000e+001  0.000000e+000
      vertex  2.400000e+001  1.500000e+001  0.000000e+000
      vertex  2.400000e+001 -1.500000e+001  7.100000e+001
    endloop
  endfacet
  facet normal  1.000000e+000  -0.000000e+000  0.000000e+000
    outer loop
      vertex  2.400000e+001 -1.500000e+001  7.100000e+001
      vertex  2.400000e+001  1.500000e+001  0.000000e+000
      vertex  2.400000e+001  1.500000e+001  7.100000e+001
    endloop
  endfacet
  facet normal -1.000000e+000  0.000000e+000  0.000000e+000
    outer loop
      vertex -2.400000e+001  1.500000e+001  0.000000e+000
      vertex -2.400000e+001 -1.500000e+001  0.000000e+000
      vertex -2.400000e+001  1.500000e+001  7.100000e+001
    endloop
  endfacet
  facet normal -1.000000e+000  -0.000000e+000  0.000000e+000
    outer loop
      vertex -2.400000e+001  1.500000e+001  7.100000e+001
      vertex -2.400000e+001 -1.500000e+001  0.000000e+000
      vertex -2.400000e+001 -1.500000e+001  7.100000e+001
    endloop
  endfacet
endsolid CATIA STL
